# xmcd
#
# Track frame offsets:
#	150
#	56741
#	93840
#	117530
#
# Disc length: 2015 seconds
#
# Revision: 1
# Processed by: cddbd v1.5.1PL0 Copyright (c) Steve Scherf et al.
# Submitted via: audiograbber 1.82.01
#
DISCID=3007dd04
DTITLE=Johnny Winter  - 2001-02-23 - Northampton, Ma - "The Birthday Show" - Di
DTITLE=sc 2
DYEAR=1900
DGENRE=
TTITLE0=Johnny Winter - The Sun Is Shining
TTITLE1=Johnny Winter - Going Down
TTITLE2=Johnny Winter - Johnny Guitar
TTITLE3=Johnny Winter - Drop The Bomb
EXTD=
EXTT0=
EXTT1=
EXTT2=
EXTT3=
PLAYORDER=
